IDResults
version=1
nRows=30
nColumns=21
inDegrees=yes
endheader
time	crank_angle	pedal_angle_r	pelvis_tilt	pelvis_list	pelvis_rotation	pelvis_tx	pelvis_ty	pelvis_tz	hip_angle_r	hip_adduction_r	hip_rotation_r	knee_angle_r	tib_tx_r	tib_ty_r	pat_angle_r	pat_tx_r	pat_ty_r	ankle_angle_r	subtalar_angle_r	mtp_angle_r
      0.80511951	   -431.56897102	    439.36137107	      0.00000000	      0.00000000	      0.00000000	     -0.10000000	     -0.05000000	     -0.00085074	     72.48458139	      4.23078128	     -1.25142114	    -86.03261515	      0.00430470	     -0.48456207	     17.55509595	      0.03424855	     -0.02257292	     21.83175233	      0.00000000	      0.00000000
      0.80533694	   -431.67336757	    439.48429677	      0.00000000	      0.00000000	      0.00000000	     -0.10000000	     -0.05000000	     -0.00085074	     72.44654334	      4.23111179	     -1.24678737	    -85.97134122	      0.00431123	     -0.48454090	     17.55494819	      0.03427111	     -0.02257131	     21.82678147	      0.00000000	      0.00000000
      0.80564488	   -431.82122146	    439.65837679	      0.00000000	      0.00000000	      0.00000000	     -0.10000000	     -0.05000000	     -0.00085074	     72.39259255	      4.23157866	     -1.24022427	    -85.88453131	      0.00432044	     -0.48451090	     17.55474074	      0.03430304	     -0.02256904	     21.81977500	      0.00000000	      0.00000000
      0.80584942	   -431.91942901	    439.77399382	      0.00000000	      0.00000000	      0.00000000	     -0.10000000	     -0.05000000	     -0.00085074	     72.35670656	      4.23188799	     -1.23586467	    -85.82685150	      0.00432653	     -0.48449097	     17.55460413	      0.03432425	     -0.02256755	     21.81514294	      0.00000000	      0.00000000
      0.80616659	   -432.07171458	    439.95325894	      0.00000000	      0.00000000	      0.00000000	     -0.10000000	     -0.05000000	     -0.00085074	     72.30098005	      4.23236639	     -1.22910403	    -85.73738068	      0.00433594	     -0.48446006	     17.55439418	      0.03435712	     -0.02256525	     21.80799465	      0.00000000	      0.00000000
      0.80621006	   -432.09258621	    439.97782671	      0.00000000	      0.00000000	      0.00000000	     -0.10000000	     -0.05000000	     -0.00085074	     72.29333485	      4.23243184	     -1.22817741	    -85.72511539	      0.00433722	     -0.48445582	     17.55436559	      0.03436163	     -0.02256494	     21.80701820	      0.00000000	      0.00000000
      0.80633159	   -432.15093746	    440.04650937	      0.00000000	      0.00000000	      0.00000000	     -0.10000000	     -0.05000000	     -0.00085074	     72.27195137	      4.23261466	     -1.22558678	    -85.69082150	      0.00434081	     -0.48444398	     17.55428588	      0.03437422	     -0.02256407	     21.80429249	      0.00000000	      0.00000000
      0.80661104	   -432.28511220	    440.20442941	      0.00000000	      0.00000000	      0.00000000	     -0.10000000	     -0.05000000	     -0.00085074	     72.22272769	      4.23303421	     -1.21962952	    -85.61194525	      0.00434902	     -0.48441673	     17.55410389	      0.03440316	     -0.02256208	     21.79804822	      0.00000000	      0.00000000
      0.80671985	   -432.33735608	    440.26591488	      0.00000000	      0.00000000	      0.00000000	     -0.10000000	     -0.05000000	     -0.00085074	     72.20354112	      4.23319725	     -1.21730983	    -85.58122562	      0.00435221	     -0.48440612	     17.55403352	      0.03441443	     -0.02256130	     21.79562568	      0.00000000	      0.00000000
      0.80693346	   -432.43991850	    440.38661308	      0.00000000	      0.00000000	      0.00000000	     -0.10000000	     -0.05000000	     -0.00085074	     72.16584214	      4.23351680	     -1.21275576	    -85.52090646	      0.00435846	     -0.48438529	     17.55389617	      0.03443654	     -0.02255980	     21.79088424	      0.00000000	      0.00000000
      0.80725401	   -432.59382693	    440.56771983	      0.00000000	      0.00000000	      0.00000000	     -0.10000000	     -0.05000000	     -0.00085074	     72.10918817	      4.23399502	     -1.20592136	    -85.43035984	      0.00436778	     -0.48435402	     17.55369208	      0.03446971	     -0.02255756	     21.78380478	      0.00000000	      0.00000000
      0.80745736	   -432.69146312	    440.68259960	      0.00000000	      0.00000000	      0.00000000	     -0.10000000	     -0.05000000	     -0.00085074	     72.07319744	      4.23429758	     -1.20158551	    -85.37290065	      0.00437366	     -0.48433418	     17.55356387	      0.03449075	     -0.02255615	     21.77933595	      0.00000000	      0.00000000
      0.80782332	   -432.86717466	    440.88932326	      0.00000000	      0.00000000	      0.00000000	     -0.10000000	     -0.05000000	     -0.00085074	     72.00832775	      4.23484049	     -1.19378196	    -85.26945825	      0.00438420	     -0.48429846	     17.55333563	      0.03452859	     -0.02255365	     21.77133711	      0.00000000	      0.00000000
      0.80805263	   -432.97727525	    441.01884269	      0.00000000	      0.00000000	      0.00000000	     -0.10000000	     -0.05000000	     -0.00085074	     71.96761598	      4.23517963	     -1.18889193	    -85.20461822	      0.00439077	     -0.48427608	     17.55319425	      0.03455229	     -0.02255209	     21.76635357	      0.00000000	      0.00000000
      0.80828195	   -433.08738064	    441.14835755	      0.00000000	      0.00000000	      0.00000000	     -0.10000000	     -0.05000000	     -0.00085074	     71.92685289	      4.23551798	     -1.18400145	    -85.13975765	      0.00439731	     -0.48425369	     17.55305415	      0.03457598	     -0.02255055	     21.76139181	      0.00000000	      0.00000000
      0.80851126	   -433.19748123	    441.27785656	      0.00000000	      0.00000000	      0.00000000	     -0.10000000	     -0.05000000	     -0.00085074	     71.88604217	      4.23585551	     -1.17911092	    -85.07488233	      0.00440383	     -0.48423130	     17.55291533	      0.03459967	     -0.02254902	     21.75645226	      0.00000000	      0.00000000
      0.80887463	   -433.37194920	    441.48304290	      0.00000000	      0.00000000	      0.00000000	     -0.10000000	     -0.05000000	     -0.00085074	     71.82127166	      4.23638871	     -1.17136077	    -84.97204363	      0.00441409	     -0.48419581	     17.55269800	      0.03463718	     -0.02254662	     21.74867003	      0.00000000	      0.00000000
      0.80924441	   -433.54949487	    441.69182268	      0.00000000	      0.00000000	      0.00000000	     -0.10000000	     -0.05000000	     -0.00085074	     71.75523207	      4.23692921	     -1.16347327	    -84.86734625	      0.00442447	     -0.48415969	     17.55248019	      0.03467534	     -0.02254422	     21.74080731	      0.00000000	      0.00000000
      0.80928139	   -433.56725039	    441.71270034	      0.00000000	      0.00000000	      0.00000000	     -0.10000000	     -0.05000000	     -0.00085074	     71.74862075	      4.23698315	     -1.16268444	    -84.85687349	      0.00442550	     -0.48415607	     17.55245860	      0.03467915	     -0.02254398	     21.74002415	      0.00000000	      0.00000000
      0.80933033	   -433.59074838	    441.74032981	      0.00000000	      0.00000000	      0.00000000	     -0.10000000	     -0.05000000	     -0.00085074	     71.73986926	      4.23705450	     -1.16164048	    -84.84301298	      0.00442687	     -0.48415129	     17.55243007	      0.03468420	     -0.02254366	     21.73898858	      0.00000000	      0.00000000
      0.80957506	   -433.70825271	    441.87848721	      0.00000000	      0.00000000	      0.00000000	     -0.10000000	     -0.05000000	     -0.00085074	     71.69607313	      4.23741073	     -1.15641987	    -84.77369026	      0.00443368	     -0.48412738	     17.55228833	      0.03470944	     -0.02254210	     21.73382518	      0.00000000	      0.00000000
      0.80978877	   -433.81086313	    441.99912351	      0.00000000	      0.00000000	      0.00000000	     -0.10000000	     -0.05000000	     -0.00085074	     71.65778288	      4.23772105	     -1.15186076	    -84.71313855	      0.00443961	     -0.48410649	     17.55216578	      0.03473147	     -0.02254074	     21.72933681	      0.00000000	      0.00000000
      0.81009893	   -433.95978293	    442.17418899	      0.00000000	      0.00000000	      0.00000000	     -0.10000000	     -0.05000000	     -0.00085074	     71.60213678	      4.23817015	     -1.14524368	    -84.62523315	      0.00444817	     -0.48407617	     17.55199000	      0.03476343	     -0.02253879	     21.72285690	      0.00000000	      0.00000000
      0.81014220	   -433.98055853	    442.19861067	      0.00000000	      0.00000000	      0.00000000	     -0.10000000	     -0.05000000	     -0.00085074	     71.59436663	      4.23823269	     -1.14432051	    -84.61296716	      0.00444936	     -0.48407194	     17.55196567	      0.03476789	     -0.02253852	     21.72195611	      0.00000000	      0.00000000
      0.81026154	   -434.03785827	    442.26596460	      0.00000000	      0.00000000	      0.00000000	     -0.10000000	     -0.05000000	     -0.00085074	     71.57292738	      4.23840501	     -1.14177432	    -84.57913411	      0.00445264	     -0.48406027	     17.55189882	      0.03478018	     -0.02253778	     21.71947578	      0.00000000	      0.00000000
      0.81053696	   -434.17009806	    442.42139771	      0.00000000	      0.00000000	      0.00000000	     -0.10000000	     -0.05000000	     -0.00085074	     71.52339871	      4.23880185	     -1.13589782	    -84.50103506	      0.00446017	     -0.48403334	     17.55174594	      0.03480854	     -0.02253608	     21.71377438	      0.00000000	      0.00000000
      0.81064632	   -434.22260602	    442.48311097	      0.00000000	      0.00000000	      0.00000000	     -0.10000000	     -0.05000000	     -0.00085074	     71.50371327	      4.23895910	     -1.13356437	    -84.47001797	      0.00446315	     -0.48402265	     17.55168578	      0.03481980	     -0.02253541	     21.71151939	      0.00000000	      0.00000000
      0.81085855	   -434.32450584	    442.60286864	      0.00000000	      0.00000000	      0.00000000	     -0.10000000	     -0.05000000	     -0.00085074	     71.46547945	      4.23926372	     -1.12903578	    -84.40981390	      0.00446892	     -0.48400189	     17.55156991	      0.03484164	     -0.02253412	     21.70715760	      0.00000000	      0.00000000
      0.81112110	   -434.45056624	    442.75100923	      0.00000000	      0.00000000	      0.00000000	     -0.10000000	     -0.05000000	     -0.00085074	     71.41812353	      4.23963960	     -1.12343318	    -84.33531610	      0.00447602	     -0.48397621	     17.55142820	      0.03486865	     -0.02253254	     21.70178786	      0.00000000	      0.00000000
      0.81132011	   -434.54611863	    442.86328952	      0.00000000	      0.00000000	      0.00000000	     -0.10000000	     -0.05000000	     -0.00085074	     71.38218650	      4.23992378	     -1.11918626	    -84.27883349	      0.00448138	     -0.48395674	     17.55132199	      0.03488912	     -0.02253135	     21.69773699	      0.00000000	      0.00000000
